<svg xmlns="http://www.w3.org/2000/svg" viewBox="0 0 48 48" fill="none" aria-hidden="true">
  <path
    d="M24 4L8 10v14c0 9.4 6.8 18.2 16 20 9.2-1.8 16-10.6 16-20V10L24 4z"
    stroke="#18181b"
    stroke-width="2"
    stroke-linejoin="round"
    fill="none"
  />
  <g fill="#18181b" transform="translate(11.5, 7) scale(1.05)">
    <path d="M8.25 4.5a3.75 3.75 0 1 1 7.5 0v8.25a3.75 3.75 0 1 1-7.5 0V4.5Z" />
    <path d="M6 10.5a.75.75 0 0 1 .75.75v1.5a5.25 5.25 0 1 0 10.5 0v-1.5a.75.75 0 0 1 1.5 0v1.5a6.751 6.751 0 0 1-6 6.709v2.291h3a.75.75 0 0 1 0 1.5h-7.5a.75.75 0 0 1 0-1.5h3v-2.291a6.751 6.751 0 0 1-6-6.709v-1.5A.75.75 0 0 1 6 10.5Z" />
  </g>
</svg>
